<?xml version="1.0" encoding="utf-8"?>
<!-- Generator: Adobe Illustrator 26.0.3, SVG Export Plug-In . SVG Version: 6.00 Build 0)  -->
<svg version="1.1" id="Layer_1" xmlns="http://www.w3.org/2000/svg" xmlns:xlink="http://www.w3.org/1999/xlink" x="0px" y="0px"
	 viewBox="0 0 323 104" style="enable-background:new 0 0 323 104;" xml:space="preserve">
<style type="text/css">
	.st0{fill:#40A047;}
</style>
<g>
	<path class="st0" d="M100.7,74.1c0,0.7-0.1,1.1-0.1,1.5c0,1.8,0,1.9-1.8,2.2c-2.6,0.5-5.3,0.3-7.9-0.5c-0.3-0.1-0.5-0.6-0.7-0.9
		c0-0.2,0-0.4,0-0.6c0-14.8,0-29.6,0-44.5c0-1.1,0.3-1.5,1.4-1.7c2.8-0.6,5.8-0.6,8.6,0.1c0.9,0.2,1.2,0.7,1.2,1.6
		c0,4.8,0,9.7,0,14.5c0,0.5,0.1,0.9,0.1,1.5c0.2-0.1,0.4-0.2,0.6-0.3c4.3-4.5,13-4,17.7,0c3.6,3,5.8,7.3,6.1,12
		c0.6,4.8-0.5,9.6-3.2,13.6c-3.6,5.2-10.1,7.5-16.2,5.6c-1.9-0.6-3.7-1.8-5-3.3C101.3,74.6,101.1,74.5,100.7,74.1z M115.2,61.3
		c0-4.3-2.8-7.2-6.9-7.2s-6.9,2.7-6.9,7.1s2.7,7.2,6.8,7.2S115.2,65.7,115.2,61.3z"/>
	<path class="st0" d="M231.8,48.4c0.1-0.5,0.1-0.7,0.1-0.9c0.1-2.2,0.1-2.3,2.2-2.4c2.3-0.1,4.6,0.1,6.9,0.2c0.9,0,1.3,0.5,1.3,1.5
		c-0.1,9.8-0.1,19.5,0,29.2c0,1-0.4,1.4-1.3,1.6c-2.6,0.5-5.2,0.4-7.7-0.2c-1.1-0.3-1.6-0.7-1.4-1.8c0-0.5,0-1-0.1-1.4
		c-0.3,0.1-0.5,0.3-0.7,0.5c-3.9,5-12.4,5.5-17.7,1.6c-3.5-2.6-5.9-6.5-6.5-10.8c-1-4.8-0.3-9.8,2.1-14.1c2.4-4.6,7.2-7.5,12.4-7.6
		c3.8-0.2,7.2,0.9,9.7,4C231.3,48,231.6,48.2,231.8,48.4z M231.2,61.3c0-4.3-2.6-7.1-6.8-7.1s-7.1,2.8-7.1,7.2s2.8,7.2,7,7.2
		S231.2,65.7,231.2,61.3z"/>
	<path class="st0" d="M287.3,65.7c0.4,1.4,1.4,2.6,2.8,3.2c1.9,1,4,1.3,6.2,1.1c1.8-0.3,3.7-0.6,5.5-1.1c0.4-0.1,0.9,0,1.2,0.3
		c1.2,1.3,2.3,2.8,3.4,4.2c0.5,0.6,0.3,1.1-0.2,1.6c-2.2,2-5,3.2-8,3.6c-3.8,0.6-7.8,0.2-11.4-1.3c-5.9-2.3-9.8-7.9-10.1-14.2
		c-0.6-6.6,1.4-12.2,6.9-16.1c6.5-4.7,17-4.1,22.2,2.2c3.1,3.7,4.4,8.6,3.6,13.3c-0.3,2.2-1.8,3.2-4.2,3.2L287.3,65.7L287.3,65.7z
		 M299.5,57.8c-0.4-3.2-2.9-5.1-6.3-4.8s-5.9,2.3-5.9,4.8H299.5z"/>
	<path class="st0" d="M181.5,65.7c0.6,1.8,2.1,3.2,3.9,3.7c3.3,1,6.9,0.9,10.1-0.4c0.9-0.3,1.4-0.3,1.9,0.4c1,1.4,1.9,2.7,2.9,4.1
		c0.5,0.7,0.3,1.1-0.3,1.6c-2.2,1.9-5,3.1-7.9,3.4c-3.4,0.5-6.8,0.2-10-0.9c-6.8-2.5-10.7-7.3-11.4-14.6c-0.7-6.6,1.3-12.2,6.8-16.2
		c6.5-4.8,17.1-4.2,22.3,2.2c3.1,3.7,4.4,8.6,3.5,13.3c-0.3,2.2-1.8,3.2-4.2,3.2L181.5,65.7L181.5,65.7z M181.5,57.8h12.2
		c-0.2-2.9-2.6-4.8-5.9-4.8S181.7,55,181.5,57.8L181.5,57.8z"/>
	<path class="st0" d="M260,43.8c4.6,0.2,8.2,1.5,11.2,4.4c0.6,0.6,0.8,1.1,0.2,1.8c-1.2,1.6-2.4,3.1-3.7,4.6
		c-0.5,0.6-0.9,0.4-1.6,0.1c-1.4-0.8-2.9-1.5-4.4-2.1c-0.6-0.1-1.2-0.1-1.7,0.1c-0.9,0.2-1.4,1.1-1.1,2c0.1,0.3,0.2,0.5,0.4,0.7
		c0.5,0.4,1,0.8,1.6,1c2,0.8,4,1.6,6,2.4c4.4,1.9,6.8,5.2,6.6,9.6c0,3.6-2,6.8-5.2,8.5c-6.1,3.4-15.1,2-19.9-3.1
		c-0.5-0.5-0.8-1-0.3-1.7c1.1-1.6,2.2-3.3,3.4-4.9c0.5-0.8,1.1-0.8,1.9-0.3c2,1.3,4.2,2.5,6.8,2.4c1,0,1.9-0.1,2.2-1.2
		s-0.4-1.9-1.4-2.3c-2.1-0.9-4.2-1.7-6.3-2.6c-2.8-1.2-5.1-3-6-6.1c-1.7-5.7,1.7-11.3,7.9-12.8C257.9,44,259.2,43.9,260,43.8z"/>
	<path class="st0" d="M154.7,53.5c0-7.4,0-14.7,0-22.1c-0.1-0.7,0.3-1.4,1.1-1.5c0,0,0.1,0,0.1,0c2.9-0.7,5.9-0.7,8.9,0
		c0.7,0.1,1.2,0.7,1.2,1.4c0,0,0,0,0,0.1c0,14.9,0,29.8,0,44.7c0,0.8-0.1,1.2-1.1,1.4c-3,0.6-6.1,0.6-9.1-0.2
		c-0.7-0.1-1.1-0.7-1-1.4c0,0,0,0,0-0.1C154.8,68.4,154.7,61,154.7,53.5z"/>
	<path class="st0" d="M76.9,43c2.6,0.7,5.1,1.4,7.5,2.1c0.3,0.2,0.5,0.5,0.5,0.8c-1.2,15.9-13.2,29-29,31.5
		c-4.7,0.7-9.6,0.5-14.2-0.6c-0.3-0.1-0.7-0.2-1-0.4c1.5-1.7,3-3.2,4.3-4.9s2.6-2,4.7-2c14.4,0.4,26.5-10.9,27-25.3
		C76.8,44,76.8,43.7,76.9,43z"/>
	<path class="st0" d="M62.2,63.9c-2.4,0.8-4.8,1.6-7.2,2.3c-0.2,0.1-0.8-0.4-1-0.7c-2.1-4.2-5.2-7.7-9.1-10.3
		c-4.5-3-9.9-4.6-15.3-4.4c-1.3,0-1.9-0.4-2.1-1.6c-0.3-1.8-0.6-3.7-0.9-5.5c-0.1-0.8,0.4-0.9,1-0.9c6.9-0.3,13.7,1.4,19.8,4.6
		c6.4,3.4,11.5,8.8,14.4,15.5C62,63.1,62,63.4,62.2,63.9z"/>
	<path class="st0" d="M39.1,76c-2.8-0.9-5.5-2.2-8-3.9c-8.3-5.5-13.8-14.4-15.1-24.3c-0.3-2-0.7-1.9,1.7-3c1.4-0.5,2.8-1,4.2-1.3
		c1.8-0.5,1.9-0.4,2.1,1.5c0.3,5.2,2.1,10.1,5.3,14.2c2.3,3.1,5.4,5.7,8.9,7.5c0.7,0.2,1.1,0.9,1,1.6c0,2.2,0,4.5,0,6.7
		C39.2,75.3,39.2,75.7,39.1,76z"/>
	<path class="st0" d="M38.8,34.7l-1.6,1.8l-1.9-1.5c1.2-1.6,2.4-3,3.4-4.6c1-1.6,2.6-2.7,4.4-3.1c2.2-0.5,4.3-1.3,6.4-1.9
		c0.5-0.1,1-0.1,1.5,0c2.8,0.8,5.5,1.7,8.2,2.6c0.7,0.2,1.2,0.7,1.7,1.2c1.5,1.9,2.9,3.8,4.5,5.9l-1.9,1.6l-1.9-2.1
		c-0.1,0.7-0.2,1-0.2,1.4c0,1.5,0,3.1,0,4.7c0,0.3-0.2,0.8-0.5,0.9c-1.7,0.6-3.5,1.2-5.4,1.8c0-0.6-0.1-1.2-0.1-1.7
		c0-1.6,0-3.3,0-4.9c0-0.7-0.2-1.1-1-1.1c-2.6,0-5.3,0-7.9,0c-0.8,0-1,0.3-1,1.1c0,2.3,0,4.5,0,7c-2-0.7-3.9-1.3-5.8-2
		c-0.2-0.1-0.4-0.6-0.4-1c0-1.5,0-3,0-4.6c0-0.4,0-0.8-0.1-1.1L38.8,34.7z M47.6,30.6c0,1.5,1.2,2.7,2.7,2.8c1.5,0,2.7-1.3,2.7-2.8
		c0-1.5-1.2-2.7-2.7-2.8C48.8,27.9,47.6,29.1,47.6,30.6z"/>
	<path class="st0" d="M139.7,62.1c-2.2,0-4.4,0-6.6,0c-0.5,0.1-1.1-0.2-1.2-0.8c0-0.1,0-0.2,0-0.2c-0.8-3.2-0.7-6.6,0.3-9.8
		c0.1-0.5,0.6-0.9,1.1-0.9c0,0,0.1,0,0.1,0c4.3,0,8.6,0,12.9,0c0.7,0,1,0.3,1.1,0.9c1,3.2,1.1,6.6,0.2,9.8c0,0.6-0.5,1-1.1,0.9
		c0,0,0,0-0.1,0C144.2,62,142,62.1,139.7,62.1z"/>
	<path class="st0" d="M53.1,47.2c2.2-0.9,4.4-1.9,6.6-2.6c4.1-1.3,8.5-1.8,12.8-1.5c1,0.1,1.4,0.4,1.2,1.4c-0.3,2-0.7,4-1,6
		c-0.1,0.7-0.5,0.9-1.2,0.8c-3.9-0.2-7.8,0.4-11.4,1.8c-0.4,0.1-0.9,0.1-1.2-0.1C57,51.1,55.2,49.2,53.1,47.2z"/>
	<path class="st0" d="M51.6,66.7c-7.7,1.4-20.3-6.2-22.3-13.4C37.2,53,47.3,58.3,51.6,66.7z"/>
	<path class="st0" d="M65.1,61.6l-3.9-6.1c3.2-1.7,6.7-2.1,10.4-2.2C70.2,56.6,67.9,59.4,65.1,61.6z"/>
</g>
</svg>
